UNKNOWN
version=1
nRows=51
nColumns=9
inDegrees=no
endheader
time	time	pelvis_tilt	hip_flexion_r	hip_flexion_l	knee_angle_r	knee_angle_l	ankle_angle_r	ankle_angle_l
      0.00000000	      4.37000000	      2.43600937	    -16.84949191	      2.47955237	    -52.50946544	    -18.32707678	    -28.02830775	      0.10117804
      1.00000000	      4.38000000	      2.26160947	    -15.66311320	      1.66996734	    -53.94447388	    -18.05264991	    -26.19550338	      0.30355016
      2.00000000	      4.39000000	      1.99059975	    -14.00208972	      0.64265382	    -55.71655053	    -17.69946311	    -23.73016998	      0.59655882
      3.00000000	      4.40000000	      1.64185599	    -12.04636157	     -0.50011103	    -57.49393680	    -17.24141870	    -20.98058535	      0.90854548
      4.00000000	      4.41000000	      1.29326147	     -9.97789496	     -1.71328355	    -59.06074543	    -16.67261682	    -18.36024696	      1.19627886
      5.00000000	      4.42000000	      0.96721696	     -7.88588431	     -2.94895727	    -60.29641166	    -15.97394433	    -16.11537353	      1.44614610
      6.00000000	      4.43000000	      0.67640180	     -5.77885124	     -4.12048095	    -61.18688617	    -15.20663904	    -14.32753631	      1.67827866
      7.00000000	      4.44000000	      0.42846536	     -3.73855180	     -5.29520738	    -61.72535001	    -14.36324659	    -12.92380694	      1.91731232
      8.00000000	      4.45000000	      0.21734962	     -1.82032409	     -6.49934878	    -61.91057192	    -13.46020654	    -11.72232264	      2.15151708
      9.00000000	      4.46000000	      0.02289330	     -0.03826682	     -7.69901929	    -61.75419615	    -12.57405534	    -10.53602002	      2.40964800
     10.00000000	      4.47000000	     -0.14233337	      1.61647721	     -8.86519475	    -61.26258308	    -11.73156902	     -9.21688210	      2.67852774
     11.00000000	      4.48000000	     -0.30818081	      3.08900805	    -10.04148060	    -60.42337493	    -10.93695121	     -7.75175411	      2.94592350
     12.00000000	      4.49000000	     -0.45537868	      4.37724608	    -11.22156623	    -59.24895834	    -10.20241446	     -6.14346800	      3.20728420
     13.00000000	      4.50000000	     -0.55704629	      5.53136830	    -12.36790779	    -57.75882950	     -9.54152215	     -4.50868114	      3.46067678
     14.00000000	      4.51000000	     -0.62774305	      6.53397445	    -13.52251680	    -55.94783827	     -8.90981504	     -3.04216086	      3.66504102
     15.00000000	      4.52000000	     -0.62070199	      7.48457096	    -14.58480838	    -53.87655421	     -8.37326774	     -1.78797684	      3.90186644
     16.00000000	      4.53000000	     -0.57464355	      8.25559793	    -15.70073876	    -51.51067416	     -7.84491513	     -0.87508712	      4.07882164
     17.00000000	      4.54000000	     -0.45877059	      8.93643699	    -16.78183672	    -48.90859878	     -7.38229538	     -0.18302001	      4.31316441
     18.00000000	      4.55000000	     -0.30452222	      9.46368761	    -17.91256560	    -46.06305990	     -6.93871272	      0.29966671	      4.55776953
     19.00000000	      4.56000000	     -0.09090885	      9.90805612	    -19.03162457	    -43.00962545	     -6.52729820	      0.71367324	      4.83908287
     20.00000000	      4.57000000	      0.17708806	     10.27326135	    -20.14274077	    -39.75462661	     -6.13114452	      1.12713329	      5.14316514
     21.00000000	      4.58000000	      0.47933682	     10.61933352	    -21.18234715	    -36.30776974	     -5.76565639	      1.58895280	      5.49773309
     22.00000000	      4.59000000	      0.76363940	     10.69186601	    -22.39857547	    -32.59282382	     -5.32498149	      2.04562717	      5.75297388
     23.00000000	      4.60000000	      1.05531482	     10.74215514	    -23.55070694	    -28.70425337	     -4.89674080	      2.52779740	      6.05610371
     24.00000000	      4.61000000	      1.37487565	     10.73545625	    -24.67745265	    -24.67279398	     -4.47788805	      3.00054686	      6.32316486
     25.00000000	      4.62000000	      1.63881420	     10.61298952	    -25.83232066	    -20.51618104	     -4.06078674	      3.39133867	      6.58740538
     26.00000000	      4.63000000	      1.86597425	     10.43683048	    -26.96282176	    -16.33659394	     -3.68743373	      3.69899252	      6.85697142
     27.00000000	      4.64000000	      2.04336675	     10.21717252	    -28.06389480	    -12.24062038	     -3.38131716	      3.90000601	      7.14022736
     28.00000000	      4.65000000	      2.16369196	      9.96507119	    -29.12954579	     -8.35567435	     -3.17407573	      4.00606049	      7.45192835
     29.00000000	      4.66000000	      2.24460350	      9.73504806	    -30.12441919	     -4.84079016	     -3.09883074	      4.05302679	      7.80184467
     30.00000000	      4.67000000	      2.28628026	      9.50866016	    -31.11187456	     -1.88230138	     -3.16436208	      4.14201349	      8.11915867
     31.00000000	      4.68000000	      2.31631548	      9.41582697	    -31.98769995	      0.32353055	     -3.42123985	      4.38048545	      8.42768563
     32.00000000	      4.69000000	      2.31664471	      9.46231449	    -32.77825039	      1.64633298	     -3.86691027	      4.82308748	      8.65763808
     33.00000000	      4.70000000	      2.32572483	      9.66612482	    -33.43171791	      2.03773672	     -4.56376795	      5.40628649	      8.83881093
     34.00000000	      4.71000000	      2.24882780	      9.98711076	    -33.96963622	      1.53718921	     -5.48977572	      5.89960399	      8.93441939
     35.00000000	      4.72000000	      2.08979760	     10.37814854	    -34.39638402	      0.26673195	     -6.63075812	      6.06060110	      8.92121575
     36.00000000	      4.73000000	      1.83705597	     10.77940610	    -34.72478774	     -1.58682771	     -7.98585382	      5.73004871	      8.74298672
     37.00000000	      4.74000000	      1.51584110	     11.17122318	    -34.96167778	     -3.83310279	     -9.55115457	      4.92021020	      8.36279512
     38.00000000	      4.75000000	      1.10169870	     11.50143300	    -35.06464710	     -6.18771162	    -11.36714910	      3.65024226	      7.69574661
     39.00000000	      4.76000000	      0.61165354	     11.70284557	    -35.02189224	     -8.46637821	    -13.48474219	      2.12509144	      6.65904973
     40.00000000	      4.77000000	      0.02343651	     11.73133083	    -34.81002369	    -10.57433859	    -15.93623864	      0.56367467	      5.13576129
     41.00000000	      4.78000000	     -0.66465129	     11.57035247	    -34.39216089	    -12.49810231	    -18.76917345	     -0.78514468	      3.02536274
     42.00000000	      4.79000000	     -1.43736298	     11.25118581	    -33.70657467	    -14.27889594	    -22.01222098	     -1.63155399	      0.24153556
     43.00000000	      4.80000000	     -2.26348073	     10.81390586	    -32.72474028	    -15.93399033	    -25.62405780	     -1.92867849	     -3.26256429
     44.00000000	      4.81000000	     -3.09277198	     10.27545821	    -31.44976121	    -17.43837934	    -29.49472504	     -1.73372163	     -7.48233085
     45.00000000	      4.82000000	     -3.84872750	      9.64032375	    -29.92775476	    -18.71394624	    -33.43176029	     -1.33144894	    -12.35487992
     46.00000000	      4.83000000	     -4.46375872	      8.88169235	    -28.18962358	    -19.66083268	    -37.26955921	     -0.85057628	    -17.60451102
     47.00000000	      4.84000000	     -4.92758066	      7.94131032	    -26.33734284	    -20.21822235	    -40.87159742	     -0.39587568	    -22.71965024
     48.00000000	      4.85000000	     -5.19130296	      6.91131034	    -24.33028729	    -20.38741522	    -44.21769895	     -0.03325665	    -27.03379400
     49.00000000	      4.86000000	     -5.33427906	      5.59701275	    -22.39547737	    -20.13816981	    -47.30181700	      0.19977935	    -29.82615314
     50.00000000	      4.87000000	     -5.32235911	      4.13842544	    -20.44845993	    -19.59205988	    -50.18650030	      0.34283641	    -30.67108642
